<svg xmlns="http://www.w3.org/2000/svg" viewBox="0 0 358.28 319.5"><defs><style>.cls-1{fill:#fff;}.cls-2{fill:#00e676;}</style></defs><g id="Layer_2" data-name="Layer 2"><g id="Layer_1-2" data-name="Layer 1"><path class="cls-1" d="M20.32,294.05H9.17v10.09H21.69l-.77,5.35H3V274.74H20.85v5.45H9.17v8.46H20.32Z" transform="translate(-1.08)"/><path class="cls-1" d="M23.61,291.18c0-5.47,0-6.88-.05-8.27h5.9a20.55,20.55,0,0,1,.2,2.77,6.16,6.16,0,0,1,5.87-3.27c4.34,0,6.81,2.74,6.81,8.12v19H36.19V291.92c0-2.64-.52-4.25-3-4.25-2.32,0-3.44,1.31-3.44,5.35v16.47H23.61Z" transform="translate(-1.08)"/><path class="cls-1" d="M51.32,297.8c0,3.37.41,7.12,3.81,7.12,3.06,0,3.45-2.6,3.56-3.5h5.87c-.1.84-.69,8.58-9.52,8.58-8.62,0-9.82-7.24-9.82-14,0-8.43,3.2-13.58,9.94-13.58,7.72,0,9.6,5.78,9.6,12.71,0,.93,0,2.18-.09,2.64Zm7.39-4.44c0-2.59-.3-5.88-3.55-5.88-3.52,0-3.73,4-3.75,5.88Z" transform="translate(-1.08)"/><path class="cls-1" d="M67.58,291.92c0-4.37,0-7.12,0-9h5.86a40.93,40.93,0,0,1,.15,4.37,6.77,6.77,0,0,1,7-4.82v6.88c-4.34-.1-6.78,1.17-6.78,6.2v13.95H67.58Z" transform="translate(-1.08)"/><path class="cls-1" d="M101,307.34c0,7.55-2.19,12.16-10.23,12.16-7.56,0-9.17-4.45-9.32-7.69h6.1c.1.81.38,2.71,3.45,2.71,3.32,0,4-2.52,4-7.18v-1.19c-1,2.16-3,3.16-5.68,3.16-5.66,0-8.07-5-8.07-12.8,0-9.1,3.28-14.06,8.63-14.06,3.5,0,4.7,1.66,5.12,2.81,0-.8.15-1.71.25-2.35h5.89c0,1.63-.09,4.3-.09,8Zm-13.52-11c0,5.48,1.33,7.81,3.81,7.81,3.09,0,3.76-3,3.76-8.64,0-4.78-.24-7.83-3.57-7.83C88.88,287.67,87.45,290.35,87.45,296.33Z" transform="translate(-1.08)"/><path class="cls-1" d="M108.73,282.91c1.94,8.54,3.81,15.81,4.12,19h.05c.6-3.77,2.37-11.54,4.17-19h6.16l-7.65,27.79c-2.27,8.27-5.24,8.76-8.94,8.76a13.14,13.14,0,0,1-2.39-.2v-5.18a18.81,18.81,0,0,0,1.91.11c2.34,0,3.15-1.18,3.85-4.35l-8-26.93Z" transform="translate(-1.08)"/><path class="cls-1" d="M133.35,274.74h9.05c8.94,0,12.41,5.73,12.41,16.66,0,11.74-3.33,18.09-12.89,18.09h-8.57Zm6.27,29.67h2.23c4.86,0,6.53-3.66,6.53-13,0-8-1.48-11.51-6.48-11.51h-2.28Z" transform="translate(-1.08)"/><path class="cls-1" d="M175.13,303.7c0,1.31.11,4.59.21,5.79h-5.58a15.12,15.12,0,0,1-.26-2.47c-1,1.69-2.76,2.93-6,2.93-5.11,0-7.08-4.07-7.08-7.88,0-5.44,3.74-8.74,10.48-8.74.9,0,1.58,0,2.18.06v-2.9c0-1.55-.2-3.37-2.86-3.37s-2.84,1.68-3,3.43h-5.82c.11-3.91,1.94-8.1,9.05-8.1,5.71,0,8.67,2.59,8.67,7.66Zm-5.9-5.87a11.93,11.93,0,0,0-2-.1c-3.5,0-4.77,1.62-4.77,3.79,0,1.62.78,3.45,3.06,3.45,3.13,0,3.69-2.34,3.69-6.29Z" transform="translate(-1.08)"/><path class="cls-1" d="M176.36,282.91h3.48v-6.64H186v6.64h4.11v5H186v14.55c0,1.54.28,2.42,2.2,2.42a7.15,7.15,0,0,0,1.51-.11v4.51a10.67,10.67,0,0,1-3.75.54c-4.25,0-6.09-1.57-6.09-6.34V287.94h-3.48Z" transform="translate(-1.08)"/><path class="cls-1" d="M209.65,303.7c0,1.31.11,4.59.2,5.79h-5.57A15.12,15.12,0,0,1,204,307c-1,1.69-2.76,2.93-6,2.93-5.11,0-7.08-4.07-7.08-7.88,0-5.44,3.73-8.74,10.48-8.74.9,0,1.58,0,2.18.06v-2.9c0-1.55-.2-3.37-2.86-3.37s-2.84,1.68-3,3.43h-5.82c.1-3.91,1.94-8.1,9-8.1,5.71,0,8.67,2.59,8.67,7.66Zm-5.9-5.87a11.93,11.93,0,0,0-2-.1c-3.5,0-4.77,1.62-4.77,3.79,0,1.62.78,3.45,3.05,3.45,3.14,0,3.7-2.34,3.7-6.29Z" transform="translate(-1.08)"/><path class="cls-1" d="M223.11,309.49V274.61h4.71c9.65,24.15,11,27.43,11.44,28.95h.06c-.25-4.69-.31-9.94-.31-15.61V274.61h3.59v34.88h-4.51c-10-25.36-11.25-28.57-11.65-29.95h-.05c.26,4.37.29,10.08.29,16.36v13.59Z" transform="translate(-1.08)"/><path class="cls-1" d="M250.29,297.17c0,5.11.87,9.56,5,9.56s4.62-3.87,4.75-4.66h3.68c-.07.68-.8,7.9-8.46,7.9s-8.74-7-8.74-13.51c0-8.24,2.82-13.44,8.94-13.44,6.85,0,8.47,5.64,8.47,12.14,0,.5,0,1.37-.07,2Zm9.88-2.95c0-4.48-.95-8-4.74-8-4.76,0-5,6.2-5.07,8Z" transform="translate(-1.08)"/><path class="cls-1" d="M264.71,283.45h3.68v-6.94h3.72v6.94h4.54v3.22h-4.54v17.09c0,1.79.39,2.91,2.36,2.91a10.24,10.24,0,0,0,1.83-.14v2.89a9.31,9.31,0,0,1-3.07.43c-3.06,0-4.84-1.24-4.84-5.34V286.67h-3.68Z" transform="translate(-1.08)"/><path class="cls-1" d="M281.34,283.45c2.53,12.35,3.74,18.28,4.2,21.86h.07c.51-3.4,1.57-7.47,4.81-21.86H294c3.06,13.65,4.22,18.89,4.59,21.74h.05c.4-2.84,1.37-7.51,4.38-21.74h3.84l-6.39,26h-4c-1.88-8.51-3.82-17-4.4-21h-.05c-.5,3.88-2.4,11.51-4.64,21h-4.12l-6-26Z" transform="translate(-1.08)"/><path class="cls-1" d="M325.77,296.17c0,9.16-3.08,13.8-9,13.8-6,0-9-4.47-9-13.72,0-9,3.53-13.23,9.12-13.23S325.77,287.43,325.77,296.17Zm-14.08.1c0,7.08,1.77,10.45,5.16,10.45s5.08-3.41,5.08-10.48c0-6.66-1.65-9.94-5.1-9.94C313.55,286.3,311.69,289.22,311.69,296.27Z" transform="translate(-1.08)"/><path class="cls-1" d="M329.32,292.32c0-4.15,0-7-.05-8.87h3.61c.06.67.12,1.89.12,4.64a7.14,7.14,0,0,1,6.89-5v4.15c-4.48.15-6.81,3-6.81,7.75v14.54h-3.76Z" transform="translate(-1.08)"/><path class="cls-1" d="M346,295.72c1.67-2.55,6.09-8.74,8.45-12.27h4.19c-2.33,3.3-4.82,6.65-7.23,9.94l8,16.1h-4.3l-6.19-13.08c-.76,1-2.12,2.88-2.89,3.83v9.25h-3.76V272.93H346Z" transform="translate(-1.08)"/><path class="cls-2" d="M334,96.75,307.16,67.86,293.47,40.48l1.29-16.85-27.23-1.25-21-7.41-6,11.41L214.91,15.62l4.37-3L213.91.07,171.39,4.66,160.41,1,146.22,12.59l-4.29,9.67-12.84,7.49-17.33,22-2.57,8.8h7l1.66-5.66L133.6,34.93,147.19,27l4.55-10.19L161.8,8.56l8.84,3,39-4.23,1.23,2.9L206,13.61a3.34,3.34,0,0,0,.61,5.84L243.65,35l6.14-11.72,16.45,5.8,21.27,1-.89,11.8,14.95,29.91,30.48,32.84,19.22-6.73-.6,7.09-14.59,19.82L325.4,133.3l-20.52,24,7.1,17.73-1,15.32-22.54,16.9L291,218.71l-.74,5.25-9.72,4.33-2.36,9.39L260,253.9l-21.51,1.86-2.64-8.83-10.75-17.2V214.36l-6.42-10.93h-7.83l7.51,12.77v15.46l11.29,18.08,4,13.21,29.18-2.55,21.46-19,2.06-8.24,10.1-4.5,1.45-10.17L296,210l21.55-16.15L318.79,174l-6.13-15.35,17.2-20.25L341,129.46l16.26-22.06.94-11.32a5.23,5.23,0,0,0-6.94-5.37Z" transform="translate(-1.08)"/><circle class="cls-2" cx="351.68" cy="94.79" r="5.52"/><circle class="cls-2" cx="308.64" cy="158.56" r="5.52"/><circle class="cls-2" cx="233.71" cy="257.39" r="5.52"/><circle class="cls-2" cx="291.1" cy="27.84" r="5.52"/><circle class="cls-2" cx="208.21" cy="16.68" r="5.52"/><circle class="cls-2" cx="240.09" cy="29.44" r="5.52"/><circle class="cls-2" cx="160.38" cy="5.52" r="5.52"/><polygon class="cls-1" points="78.69 175.82 74.96 201.53 0 201.53 0 62.99 75.05 62.99 75.05 89.04 31.19 89.04 31.19 116.91 73.15 116.91 73.15 142.81 31.19 142.81 31.19 175.82 78.69 175.82"/><path class="cls-1" d="M134.4,201.46c-1,0-2,.07-3,.07H93V63h31.79q-9.27,44.58-18.53,89.18c6.25-.45,12.47-.92,18.72-1.36l7.51-.56,1,27Q133.93,189.34,134.4,201.46Z" transform="translate(-1.08)"/><path class="cls-1" d="M183.45,129.59c0,45.91-12.72,68.87-45,71.64q3.14-15.51,6.25-31,2.49-12.37,5-24.73,2.3-11.36,4.58-22.71H128.62q-.39-17.65-.79-35.31c-.19-8.14-.38-16.31-.55-24.45h5.26C168.7,63,183.45,83.52,183.45,129.59Z" transform="translate(-1.08)"/><path class="cls-1" d="M289.33,63V201.53H255c-21.9-72-26-86-27.57-92h-.62c1.09,16.68,1.66,42.32,1.66,65v27H200.25V63h34.84c21.07,65.3,26,81,27.38,87.33H263c-1.38-17.44-1.81-40.28-1.81-61.9V63Z" transform="translate(-1.08)"/><path class="cls-1" d="M127.28,63h-2.52c.75-3.65,1.51-7.27,2.26-10.92C127.1,55.72,127.19,59.34,127.28,63Z" transform="translate(-1.08)"/><path class="cls-1" d="M138.4,201.23,135,218.05c-.21-5.52-.42-11.06-.61-16.59C135.76,201.42,137.1,201.36,138.4,201.23Z" transform="translate(-1.08)"/></g></g></svg>